<?xml version="1.0" standalone="no"?>
<!DOCTYPE svg PUBLIC "-//W3C//DTD SVG 20010904//EN"
 "http://www.w3.org/TR/2001/REC-SVG-20010904/DTD/svg10.dtd">
<svg version="1.0" xmlns="http://www.w3.org/2000/svg"
 width="1302.000000pt" height="954.000000pt" viewBox="0 0 1302.000000 954.000000"
 preserveAspectRatio="xMidYMid meet">

<g transform="translate(0.000000,954.000000) scale(0.100000,-0.100000)"
fill="#000000" stroke="none">
<path d="M3645 9183 c-22 -3 -42 -8 -45 -12 -3 -3 -16 -12 -30 -19 -22 -11
-20 -12 20 -5 80 13 162 8 207 -12 23 -11 43 -25 43 -30 0 -6 13 -19 29 -28
17 -10 33 -27 36 -38 4 -11 9 -18 12 -15 3 3 16 -8 30 -24 28 -34 43 -99 50
-221 4 -79 2 -91 -22 -139 -38 -75 -96 -147 -127 -159 -16 -5 -28 -15 -28 -22
0 -9 -3 -9 -14 0 -11 10 -16 9 -23 -3 -17 -30 -287 -32 -282 -2 1 15 -24 26
-37 15 -12 -10 -44 -2 -44 11 0 4 -14 22 -30 40 -17 18 -33 43 -36 56 -3 13
-11 24 -16 24 -6 0 -7 -8 -3 -17 4 -10 18 -49 32 -87 14 -38 32 -76 39 -84 8
-7 14 -18 14 -23 0 -24 93 -152 158 -216 105 -105 226 -155 301 -123 35 14 58
6 40 -16 -7 -8 -20 -11 -34 -8 -17 4 -26 0 -35 -16 -12 -22 -12 -23 46 -15 33
4 62 9 67 12 12 7 8 25 -9 38 -14 10 -13 13 12 30 37 24 114 106 114 122 0 6
-5 24 -10 38 l-10 27 -39 -49 c-21 -26 -47 -56 -59 -66 -42 -38 -139 -58 -180
-38 -9 4 -35 17 -57 27 -64 30 -190 163 -172 181 4 3 12 1 19 -4 7 -5 39 -18
72 -28 71 -21 157 -15 219 16 91 45 106 55 123 87 16 29 19 31 25 15 4 -10 8
57 8 149 1 175 13 263 51 357 11 28 20 56 20 62 0 16 -119 137 -157 160 -76
47 -169 64 -288 52z"/>
<path d="M10957 9123 c-10 -9 -8 -85 1 -101 13 -19 74 -26 94 -10 24 18 31 83
12 103 -15 15 -94 21 -107 8z m70 -43 c15 -39 -8 -43 -25 -5 -15 32 -15 35 1
35 7 0 18 -13 24 -30z"/>
<path d="M8295 8743 c-85 -19 -258 -105 -450 -223 -66 -41 -124 -78 -130 -82
-13 -12 -188 -124 -227 -146 -17 -9 -38 -22 -47 -27 -139 -87 -220 -127 -346
-170 -70 -25 -89 -27 -175 -23 -87 4 -103 8 -156 38 -62 36 -130 98 -179 165
-99 133 -152 181 -221 201 -38 11 -73 14 -103 10 -61 -8 -162 -57 -225 -108
-78 -63 -331 -324 -450 -463 -14 -16 -26 -25 -26 -19 0 6 9 19 20 29 11 10 20
21 20 25 0 9 -419 5 -447 -4 -14 -5 -19 -13 -16 -25 4 -15 -3 -20 -31 -25 -42
-8 -56 -2 -56 23 0 14 -10 20 -42 25 -61 8 -281 8 -360 0 -46 -4 -68 -3 -68 4
0 6 8 13 18 15 14 4 13 5 -3 6 -12 0 -27 -5 -34 -11 -8 -7 -11 -8 -8 -2 7 12
-80 11 -153 -1 -30 -5 -40 -11 -40 -26 0 -10 5 -19 11 -19 8 0 8 -5 -1 -15
-11 -13 55 -15 589 -15 360 0 601 -4 601 -9 0 -13 -77 -79 -115 -99 -16 -8
-48 -21 -70 -28 -33 -10 -35 -13 -14 -13 38 -1 137 52 192 104 l49 45 1236 1
c681 1 1219 4 1197 8 -49 8 -64 17 -74 44 -7 19 -13 20 -222 16 -409 -7 -706
-3 -739 11 -20 8 -34 10 -38 4 -9 -13 -62 -16 -62 -4 0 6 -11 8 -25 4 -14 -3
-25 -2 -25 4 0 5 -30 17 -67 25 -91 22 -148 14 -190 -26 -19 -18 -33 -25 -33
-18 0 11 -29 12 -157 6 -205 -10 -227 -10 -358 -7 -60 2 -131 0 -157 -3 -32
-5 -48 -3 -48 4 0 6 -10 11 -22 10 -22 0 -22 -1 -3 -9 18 -8 18 -9 2 -9 -10
-1 -15 -5 -12 -11 3 -5 -1 -10 -10 -10 -9 0 -13 5 -10 10 3 6 -1 10 -9 10 -9
0 -16 9 -16 20 0 11 -7 20 -15 20 -46 0 12 79 184 250 168 167 312 241 411
211 56 -17 114 -72 185 -177 118 -174 255 -264 400 -264 73 0 212 25 230 41 5
5 15 9 23 9 19 0 176 80 180 91 2 5 9 9 16 9 11 0 153 92 351 227 87 59 183
122 235 153 25 15 82 50 128 79 46 28 87 51 90 51 4 0 20 7 37 16 42 22 141
44 198 44 62 0 225 -33 297 -61 30 -11 69 -25 85 -31 49 -18 249 -124 327
-174 77 -49 138 -93 253 -184 81 -64 115 -84 115 -70 0 5 -12 16 -27 24 -16 8
-61 44 -102 80 -220 195 -568 380 -812 431 -66 14 -209 18 -254 8z m-3795
-787 c0 -2 -7 -6 -15 -10 -8 -3 -15 -1 -15 4 0 6 7 10 15 10 8 0 15 -2 15 -4z"/>
<path d="M12400 8675 c0 -5 5 -17 10 -25 5 -8 10 -10 10 -5 0 6 -5 17 -10 25
-5 8 -10 11 -10 5z"/>
<path d="M5298 8642 c-22 -4 -24 -45 -3 -62 21 -17 45 -5 45 23 0 29 -18 45
-42 39z"/>
<path d="M7172 8351 c-10 -10 -11 -16 -3 -19 12 -4 111 27 111 34 0 12 -94 -1
-108 -15z"/>
<path d="M7265 8320 c-3 -5 -3 -16 2 -22 14 -24 11 -36 -14 -47 -14 -7 -21
-16 -17 -23 5 -8 10 -7 18 4 6 8 19 17 30 21 14 6 17 13 11 34 -4 17 -2 29 7
34 9 6 7 9 -9 9 -12 0 -25 -4 -28 -10z"/>
<path d="M7163 8303 c-27 -5 -28 -9 -7 -30 12 -13 18 -13 24 -4 5 10 9 9 13
-3 9 -23 27 -20 27 4 0 11 5 20 10 20 6 0 10 -7 10 -15 0 -8 5 -15 10 -15 15
0 12 19 -4 36 -14 14 -38 16 -83 7z m44 -35 c-3 -8 -6 -5 -6 6 -1 11 2 17 5
13 3 -3 4 -12 1 -19z"/>
<path d="M7915 8270 c-4 -6 -1 -9 7 -8 7 2 13 -4 13 -12 0 -8 -7 -15 -15 -15
-8 0 -15 -7 -15 -15 0 -8 9 -15 19 -15 25 0 45 53 25 66 -18 11 -26 11 -34 -1z"/>
<path d="M4208 8000 c18 -16 40 -30 50 -30 15 1 15 2 -2 15 -11 8 -26 15 -33
15 -7 0 -13 4 -13 9 0 5 -8 12 -17 15 -10 3 -3 -7 15 -24z"/>
<path d="M8785 8000 c-4 -6 7 -10 27 -9 27 0 30 2 13 9 -27 12 -33 12 -40 0z"/>
<path d="M10666 7975 c-4 -19 -11 -35 -15 -35 -5 0 -14 -13 -20 -30 l-10 -30
50 0 c55 0 52 -7 31 89 -10 47 -28 50 -36 6z"/>
<path d="M8520 7992 c0 -4 6 -14 13 -21 10 -11 7 -12 -13 -6 -23 7 -24 7 -10
-10 14 -17 13 -18 -10 -12 -14 3 -93 7 -176 9 -129 2 -153 0 -168 -14 -9 -9
-16 -21 -16 -26 0 -5 -15 -14 -32 -20 -24 -7 171 -10 685 -11 394 -1 717 1
717 4 0 2 -18 23 -40 46 -34 36 -43 40 -67 34 -15 -4 -37 -8 -48 -10 -11 -2
-78 -14 -150 -27 -104 -18 -165 -23 -305 -23 -169 1 -177 2 -245 30 -38 15
-81 37 -94 47 -25 19 -41 23 -41 10z"/>
<path d="M9018 7993 c7 -3 16 -2 19 1 4 3 -2 6 -13 5 -11 0 -14 -3 -6 -6z"/>
<path d="M4170 7969 c-14 -19 -21 -20 -97 -12 -72 8 -83 7 -83 -6 0 -14 -1
-14 -10 -1 -9 13 -11 13 -20 0 -9 -13 -11 -13 -20 0 -8 13 -10 13 -10 -2 0 -9
-4 -19 -9 -22 -15 -10 -41 5 -41 23 0 9 -3 12 -8 6 -5 -7 -69 -8 -195 -3 -269
11 -610 -14 -591 -43 3 -5 -11 -9 -30 -9 -20 0 -36 -4 -36 -10 0 -7 215 -10
625 -10 545 0 625 2 625 15 0 8 -11 17 -25 21 -16 4 -25 13 -25 25 0 12 -7 19
-20 19 -13 0 -18 5 -14 15 8 21 2 18 -16 -6z m-347 -36 c-13 -2 -33 -2 -45 0
-13 2 -3 4 22 4 25 0 35 -2 23 -4z"/>
<path d="M7100 7960 c0 -5 5 -10 10 -10 6 0 10 5 10 10 0 6 -4 10 -10 10 -5 0
-10 -4 -10 -10z"/>
<path d="M4300 7892 c0 -14 11 -21 26 -15 8 3 11 9 8 14 -7 11 -34 12 -34 1z"/>
<path d="M2981 7846 c0 -11 -8 -27 -16 -36 -17 -19 -37 -199 -34 -310 1 -52 6
-68 21 -81 18 -14 9 -15 -113 -11 -134 4 -134 4 -206 -28 -39 -18 -74 -39 -77
-47 -3 -8 -3 -13 1 -11 136 66 183 76 237 54 37 -15 96 -56 86 -60 -3 -1 7
-14 22 -30 14 -16 32 -50 39 -75 7 -25 16 -52 22 -59 12 -16 4 -241 -10 -267
-6 -11 -17 -33 -24 -49 -8 -16 -22 -31 -31 -34 -10 -2 -18 -10 -18 -18 0 -7
-10 -24 -22 -38 -18 -19 -39 -26 -100 -35 -52 -7 -86 -7 -103 -1 -15 6 -42 10
-61 10 -20 0 -34 5 -35 13 0 6 -5 1 -10 -12 l-9 -24 -29 30 c-16 17 -41 52
-57 78 -32 56 -45 43 -18 -18 64 -147 271 -339 438 -406 31 -13 56 -30 56 -37
0 -17 47 -41 58 -30 9 9 10 1430 1 1501 -4 28 -7 41 -8 31z m-77 -1350 c30 -9
40 -17 41 -34 1 -13 -4 -22 -12 -22 -22 0 -153 62 -153 73 0 10 59 2 124 -17z"/>
<path d="M10590 7835 c0 -8 5 -15 10 -15 6 0 10 7 10 15 0 8 -4 15 -10 15 -5
0 -10 -7 -10 -15z"/>
<path d="M5150 7786 c0 -2 7 -7 16 -10 8 -3 12 -2 9 4 -6 10 -25 14 -25 6z"/>
<path d="M10555 7729 c-4 -6 -5 -12 -2 -15 2 -3 7 2 10 11 7 17 1 20 -8 4z"/>
<path d="M10500 7635 c0 -8 2 -15 4 -15 2 0 6 7 10 15 3 8 1 15 -4 15 -6 0
-10 -7 -10 -15z"/>
<path d="M10432 7562 c-54 -56 -64 -85 -14 -41 15 13 28 27 30 31 2 3 12 16
23 29 10 12 19 26 19 31 0 11 2 13 -58 -50z"/>
<path d="M9780 7576 c0 -2 7 -7 16 -10 8 -3 12 -2 9 4 -6 10 -25 14 -25 6z"/>
<path d="M9820 7546 c0 -2 7 -9 15 -16 9 -7 15 -8 15 -2 0 5 -7 12 -15 16 -8
3 -15 4 -15 2z"/>
<path d="M12214 7515 c-17 -27 -12 -45 14 -45 19 0 86 -33 148 -72 46 -30 126
-115 148 -159 15 -29 14 -30 -7 -23 -12 3 -31 14 -42 23 -75 64 -230 133 -267
118 -7 -3 -3 -6 10 -6 17 -1 22 -7 22 -26 0 -14 19 -59 43 -99 41 -71 42 -74
41 -162 -1 -87 -12 -135 -34 -149 -5 -3 -8 -11 -4 -16 7 -12 -35 -119 -47
-119 -5 0 -16 -18 -25 -40 -10 -23 -27 -45 -43 -53 -15 -7 -25 -20 -23 -29 1
-9 -18 -38 -43 -63 -25 -26 -45 -51 -45 -56 0 -5 -8 -9 -18 -9 -9 0 -23 -9
-29 -19 -7 -11 -29 -22 -52 -26 -23 -4 -41 -11 -41 -15 0 -12 -38 -24 -90 -27
-65 -4 -70 -5 -70 -17 0 -6 -4 -5 -9 3 -5 8 -23 14 -40 14 -25 0 -42 -12 -87
-59 -69 -74 -90 -110 -73 -130 6 -8 20 -14 31 -14 10 0 36 -9 56 -19 21 -11
75 -25 121 -31 85 -13 91 -12 206 25 22 7 79 16 126 18 79 5 87 4 92 -13 3
-10 -3 -27 -13 -38 -17 -18 -211 -132 -225 -132 -14 0 -76 -42 -71 -48 3 -2
13 1 21 8 11 9 48 14 108 14 91 1 92 2 173 50 359 214 557 512 556 836 -1 183
-60 321 -191 450 -78 77 -155 125 -256 160 l-55 19 -16 -24z"/>
<path d="M10348 7483 c7 -3 16 -2 19 1 4 3 -2 6 -13 5 -11 0 -14 -3 -6 -6z"/>
<path d="M10088 7423 c7 -3 16 -2 19 1 4 3 -2 6 -13 5 -11 0 -14 -3 -6 -6z"/>
<path d="M10300 7410 c0 -5 4 -10 9 -10 6 0 13 5 16 10 3 6 -1 10 -9 10 -9 0
-16 -4 -16 -10z"/>
<path d="M10327 7393 c-18 -5 -18 -5 0 -19 10 -7 27 -13 38 -13 19 0 18 1 -3
12 -12 7 -19 16 -16 20 4 4 5 6 3 6 -2 -1 -12 -3 -22 -6z"/>
<path d="M10222 7350 c0 -14 2 -19 5 -12 2 6 2 18 0 25 -3 6 -5 1 -5 -13z"/>
<path d="M12110 7350 c0 -5 5 -10 11 -10 5 0 7 5 4 10 -3 6 -8 10 -11 10 -2 0
-4 -4 -4 -10z"/>
<path d="M2487 7280 c-9 -11 -17 -24 -17 -28 0 -4 -15 -23 -32 -42 -18 -19
-34 -46 -35 -60 -2 -24 -1 -24 13 -6 8 11 14 25 14 32 0 7 4 14 8 16 12 5 76
97 71 103 -3 2 -13 -5 -22 -15z"/>
<path d="M2287 7143 c-10 -10 -8 -53 2 -53 5 0 11 14 13 30 4 29 -1 37 -15 23z"/>
<path d="M10936 6548 c4 -426 9 -605 17 -610 16 -10 27 0 27 26 0 13 7 39 15
59 14 33 13 35 -7 40 -18 5 -19 8 -9 21 10 12 13 90 11 338 -2 274 2 460 12
603 2 20 -9 46 -30 78 -18 26 -35 47 -37 47 -2 0 -2 -271 1 -602z"/>
<path d="M2376 7075 c-3 -8 -12 -15 -21 -15 -16 0 -21 -15 -7 -24 20 -12 52 7
52 30 0 27 -15 32 -24 9z"/>
<path d="M2392 7010 c0 -14 2 -19 5 -12 2 6 2 18 0 25 -3 6 -5 1 -5 -13z"/>
<path d="M2401 6894 c0 -11 3 -14 6 -6 3 7 2 16 -1 19 -3 4 -6 -2 -5 -13z"/>
<path d="M11210 6900 c8 -5 29 -9 45 -9 26 0 27 2 10 9 -11 5 -31 9 -45 9 -20
1 -22 -1 -10 -9z"/>
<path d="M12039 6883 c-13 -16 -12 -17 4 -4 16 13 21 21 13 21 -2 0 -10 -8
-17 -17z"/>
<path d="M11298 6883 c6 -2 18 -2 25 0 6 3 1 5 -13 5 -14 0 -19 -2 -12 -5z"/>
<path d="M11197 6793 c-20 -34 -69 -176 -82 -240 -20 -94 -32 -253 -18 -253
10 0 123 416 126 464 2 27 -16 47 -26 29z"/>
<path d="M11263 6774 c-3 -8 0 -21 6 -27 9 -9 11 -8 5 7 -6 16 -4 18 15 13 18
-4 20 -3 10 9 -15 18 -28 18 -36 -2z"/>
<path d="M11210 6551 c0 -25 6 -27 13 -6 4 8 2 17 -3 20 -6 4 -10 -3 -10 -14z"/>
<path d="M11354 6510 c5 -68 21 -99 87 -167 48 -49 79 -66 79 -44 0 5 15 29
34 54 19 24 37 55 41 68 4 13 11 26 16 29 4 3 4 12 -1 20 -8 13 -10 12 -10 -2
0 -20 -36 -25 -42 -7 -2 6 -16 13 -31 14 -16 2 -34 9 -42 15 -24 20 -88 50
-106 50 -10 0 -20 6 -23 13 -3 6 -4 -13 -2 -43z"/>
<path d="M11187 6480 c-23 -53 -77 -244 -77 -271 0 -48 60 -143 132 -211 58
-55 81 -70 137 -87 112 -34 111 -34 111 -16 0 18 -77 105 -94 105 -29 0 -113
71 -143 121 -37 62 -39 84 -28 270 6 107 5 126 -7 126 -8 0 -22 -17 -31 -37z"/>
<path d="M11770 5980 c-71 -21 -221 -27 -264 -10 -32 12 -32 6 -3 -37 32 -48
65 -58 143 -45 51 8 80 21 135 58 91 63 91 63 -11 34z"/>
<path d="M3525 5966 c0 -16 4 -22 14 -18 9 3 12 1 7 -6 -4 -7 -2 -10 6 -7 8 3
18 -6 25 -25 6 -16 16 -30 23 -30 14 0 -16 53 -50 85 l-25 24 0 -23z"/>
<path d="M11920 5978 c-19 -5 -46 -18 -60 -29 l-25 -20 35 7 c19 3 40 10 45
14 6 4 23 12 39 17 41 13 12 22 -34 11z"/>
<path d="M2600 5964 c8 -8 23 -20 34 -26 14 -6 11 -1 -8 16 -32 29 -45 34 -26
10z"/>
<path d="M11220 5963 c0 -15 2 -16 10 -3 5 8 10 11 10 5 -1 -5 -7 -19 -15 -29
-19 -25 -19 -50 -1 -65 17 -15 33 4 42 48 5 24 2 35 -12 46 -25 19 -34 19 -34
-2z"/>
<path d="M3615 5850 c3 -5 8 -10 11 -10 2 0 4 5 4 10 0 6 -5 10 -11 10 -5 0
-7 -4 -4 -10z"/>
<path d="M11545 5750 c-7 -11 13 -89 27 -104 4 -6 8 11 8 36 0 26 3 53 6 62 4
11 0 16 -14 16 -12 0 -24 -4 -27 -10z"/>
<path d="M3686 5706 c-4 -16 -5 -31 -1 -34 3 -3 5 3 5 14 0 16 2 17 10 4 11
-18 12 -3 1 25 -7 17 -9 16 -15 -9z"/>
<path d="M11506 5694 c-4 -15 -2 -32 3 -37 8 -8 11 0 11 26 0 44 -5 47 -14 11z"/>
<path d="M11650 5690 c0 -19 3 -21 12 -12 9 9 9 15 0 24 -9 9 -12 7 -12 -12z"/>
<path d="M3719 5635 c-4 -20 21 -84 33 -85 7 0 -2 33 -20 80 -8 23 -10 23 -13
5z"/>
<path d="M11535 5620 c11 -5 27 -9 35 -9 9 0 8 4 -5 9 -11 5 -27 9 -35 9 -9 0
-8 -4 5 -9z"/>
<path d="M3721 5554 c0 -11 3 -14 6 -6 3 7 2 16 -1 19 -3 4 -6 -2 -5 -13z"/>
<path d="M3763 5378 c0 -101 3 -158 10 -158 6 0 2 -8 -7 -19 -11 -12 -17 -39
-19 -80 -2 -57 5 -78 16 -48 8 21 -4 -77 -13 -103 -4 -14 -18 -74 -30 -135
-12 -60 -26 -119 -31 -130 -5 -11 -10 -36 -12 -55 -2 -20 -6 -40 -9 -45 -9
-15 -32 -99 -30 -108 2 -8 -30 -70 -87 -165 -17 -29 -31 -57 -31 -62 0 -5 -38
-47 -85 -94 -66 -66 -102 -94 -163 -123 -74 -35 -82 -37 -182 -37 -93 -1 -109
2 -142 23 -38 23 -52 61 -23 61 8 0 15 7 15 15 0 8 5 15 10 15 6 0 10 7 10 16
0 8 4 13 8 10 9 -5 42 28 42 42 0 4 9 15 20 25 11 9 20 23 20 31 0 8 12 28 26
45 14 17 23 35 19 41 -3 6 0 13 8 16 9 3 21 19 28 35 7 18 17 28 25 25 7 -3
16 4 19 14 3 10 21 32 39 48 19 16 37 39 41 51 3 11 11 21 16 21 5 0 9 6 9 14
0 8 3 16 8 18 4 2 17 22 29 45 16 33 19 50 13 77 -4 19 -5 37 -3 40 3 2 0 21
-7 40 -8 24 -18 36 -30 36 -18 0 -23 14 -33 90 -1 8 -8 15 -16 15 -8 0 -19 8
-25 18 -9 15 -7 21 8 33 19 14 19 14 -2 14 -15 0 -22 6 -22 20 0 11 -4 20 -10
20 -5 0 -10 18 -10 40 0 27 -7 47 -21 61 -11 11 -23 36 -26 55 -3 18 -9 31
-14 29 -8 -6 -49 78 -49 100 0 7 -7 18 -15 25 -8 7 -16 24 -16 39 -1 25 -2 25
-8 -4 -5 -25 -8 -27 -14 -12 -4 10 -11 15 -17 12 -5 -3 -8 0 -5 7 6 16 -11 45
-21 36 -3 -4 5 -56 19 -115 43 -180 50 -256 44 -491 -5 -176 -10 -239 -30
-332 -26 -124 -64 -243 -105 -330 -15 -30 -25 -60 -24 -67 1 -6 -3 -15 -9 -19
-8 -5 -10 -2 -5 7 4 8 -11 -6 -33 -29 -23 -24 -41 -47 -41 -52 0 -13 185 -87
205 -81 6 2 33 4 60 5 97 4 200 28 260 59 230 122 419 487 481 932 16 118 19
379 4 370 -5 -3 -10 0 -10 9 0 8 6 17 13 19 7 3 5 6 -5 6 -19 1 -26 31 -8 31
6 0 10 7 10 15 0 8 -4 15 -10 15 -5 0 -10 -5 -10 -12 0 -6 -3 -9 -6 -5 -3 3 0
21 7 40 10 29 10 44 -3 88 l-15 54 0 -157z"/>
<path d="M2940 5486 c0 -9 5 -16 10 -16 6 0 10 4 10 9 0 6 -4 13 -10 16 -5 3
-10 -1 -10 -9z"/>
<path d="M2950 5451 c0 -6 4 -13 10 -16 6 -3 7 1 4 9 -7 18 -14 21 -14 7z"/>
<path d="M2991 5444 c0 -11 3 -14 6 -6 3 7 2 16 -1 19 -3 4 -6 -2 -5 -13z"/>
<path d="M3012 5410 c0 -14 2 -19 5 -12 2 6 2 18 0 25 -3 6 -5 1 -5 -13z"/>
<path d="M1860 4971 c0 -5 8 -15 18 -22 15 -12 16 -12 5 2 -7 9 -10 19 -6 22
3 4 1 7 -5 7 -7 0 -12 -4 -12 -9z"/>
<path d="M1945 4880 c10 -11 20 -20 23 -20 3 0 -3 9 -13 20 -10 11 -20 20 -23
20 -3 0 3 -9 13 -20z"/>
<path d="M2005 4807 c10 -15 20 -25 23 -22 3 3 -5 16 -17 28 l-23 22 17 -28z"/>
<path d="M12262 4691 c7 -11 20 -22 30 -24 11 -3 16 -11 13 -19 -3 -8 4 -26
16 -39 l21 -24 -16 28 c-9 15 -15 31 -12 36 3 4 -8 20 -24 35 -35 31 -45 33
-28 7z"/>
<path d="M12360 4553 c28 -39 30 -40 30 -11 0 12 -3 18 -7 15 -3 -4 -15 1 -26
10 -17 15 -16 12 3 -14z"/>
<path d="M12406 4517 c3 -10 9 -15 12 -12 3 3 0 11 -7 18 -10 9 -11 8 -5 -6z"/>
<path d="M12431 4435 c35 -65 47 -82 34 -50 -4 11 -8 26 -8 33 0 6 -4 12 -9
12 -5 0 -7 9 -3 19 3 11 1 22 -4 26 -7 4 -8 -1 -5 -12 4 -13 0 -11 -16 7 -15
17 -11 7 11 -35z"/>
<path d="M12571 4145 c1 -19 18 -51 18 -35 0 8 -4 22 -9 30 -5 8 -9 11 -9 5z"/>
<path d="M12616 4044 c-4 -14 -5 -28 -3 -31 3 -2 8 8 11 23 4 14 5 28 3 31 -3
2 -8 -8 -11 -23z"/>
<path d="M12651 3955 c1 -19 18 -51 18 -35 0 8 -4 22 -9 30 -5 8 -9 11 -9 5z"/>
<path d="M3155 3911 c-45 -5 -52 -10 -67 -41 -10 -19 -18 -45 -18 -57 0 -21 5
-23 55 -23 42 0 57 4 62 16 5 14 16 15 66 9 l59 -6 -22 38 c-33 55 -51 73 -69
71 -9 0 -38 -4 -66 -7z"/>
<path d="M2981 3874 c0 -11 3 -14 6 -6 3 7 2 16 -1 19 -3 4 -6 -2 -5 -13z"/>
<path d="M11448 3849 c-13 -17 -110 -101 -216 -186 -189 -151 -193 -154 -230
-146 -20 4 -40 6 -44 5 -11 -3 -10 46 2 68 7 13 5 29 -5 54 -9 20 -17 36 -20
36 -2 0 -2 -36 2 -80 l6 -80 -29 0 c-16 0 -46 -5 -68 -11 -34 -9 -40 -8 -53
10 -8 12 -19 18 -25 15 -7 -5 -8 -2 -3 5 9 16 -32 61 -50 55 -7 -3 -16 -1 -20
5 -3 7 0 8 9 5 72 -28 -118 151 -207 194 -120 59 -226 63 -246 10 -5 -13 -22
-46 -38 -73 -67 -114 -85 -177 -94 -340 -4 -82 -12 -166 -16 -185 l-9 -35 -89
-6 c-50 -4 -124 -7 -166 -8 l-76 -1 -6 -172 c-4 -95 -7 -507 -7 -915 l0 -742
109 -75 c60 -42 112 -76 115 -76 3 0 6 425 6 945 l0 945 110 0 c93 0 109 -2
104 -15 -8 -20 34 -35 100 -35 30 0 98 13 152 29 55 16 111 31 126 35 l27 6
-5 -222 c-3 -123 -8 -230 -11 -238 -3 -8 -5 -35 -4 -60 2 -42 -22 -350 -35
-451 l-6 -45 58 -13 c33 -8 88 -28 124 -46 68 -34 197 -71 208 -60 4 4 14 48
23 98 16 91 17 85 18 -442 l1 -534 53 6 c28 3 130 12 225 18 l172 12 0 816 0
815 36 -39 c32 -35 34 -40 17 -46 -16 -7 -15 -8 5 -8 27 -1 60 -50 67 -101 19
-126 47 -206 100 -290 l26 -41 42 62 c33 49 51 66 81 76 22 7 42 15 44 18 2 2
-16 46 -41 98 -25 51 -53 114 -62 138 -9 24 -21 53 -26 64 -4 11 -20 50 -33
87 -33 89 -121 260 -162 313 l-32 42 52 7 c28 3 103 6 166 7 63 1 144 4 180 8
l65 6 -147 40 c-82 22 -148 43 -148 46 0 4 8 9 18 12 134 43 193 77 214 122
17 38 -22 101 -135 217 -56 58 -133 144 -172 191 -92 111 -98 115 -127 76z
m-44 -94 c-16 -24 -94 -85 -169 -131 -16 -10 1 11 39 47 38 35 82 72 97 81 15
9 30 22 34 28 4 6 9 9 12 7 2 -3 -3 -17 -13 -32z m-807 -142 c72 -46 133 -90
136 -98 4 -8 -12 -2 -36 14 -23 16 -98 66 -167 111 -69 46 -132 89 -140 97
-17 17 20 -5 207 -124z m-147 -68 c0 -8 -3 -14 -7 -13 -5 1 -30 -8 -57 -20
-65 -29 -68 -28 -23 13 40 36 87 47 87 20z m98 -17 c21 -21 13 -29 -16 -14
-16 8 -40 13 -53 10 -19 -5 -21 -4 -9 5 20 14 63 14 78 -1z m-224 -64 c3 -8 2
-12 -4 -9 -6 3 -10 1 -10 -6 0 -15 -29 -49 -42 -49 -4 0 -8 7 -8 15 0 8 7 15
15 15 8 0 15 6 15 13 0 11 19 37 26 37 1 0 5 -7 8 -16z m331 -34 c3 -5 1 -10
-4 -10 -6 0 -11 5 -11 10 0 6 2 10 4 10 3 0 8 -4 11 -10z m215 -180 c0 -5 -4
-10 -10 -10 -5 0 -10 5 -10 10 0 6 5 10 10 10 6 0 10 -4 10 -10z m65 -100 c3
-5 1 -10 -4 -10 -6 0 -11 5 -11 10 0 6 2 10 4 10 3 0 8 -4 11 -10z m44 -75 c6
-3 11 -14 11 -23 0 -12 -6 -7 -20 13 -11 17 -20 37 -19 45 0 9 4 6 9 -6 5 -12
13 -25 19 -29z m281 -68 c0 -10 4 -16 8 -13 5 3 16 -10 25 -29 9 -19 13 -35 8
-35 -10 0 -71 66 -95 102 l-17 26 36 -16 c22 -10 35 -23 35 -35z"/>
<path d="M2606 3845 c-17 -13 -15 -14 18 -12 20 1 34 7 33 12 -6 16 -30 16
-51 0z"/>
<path d="M12116 3831 c-9 -10 -19 -33 -21 -52 -6 -45 34 -89 80 -89 66 0 105
91 60 140 -24 27 -95 28 -119 1z m42 -9 c12 10 14 10 8 1 -4 -8 -1 -13 8 -13
28 0 65 -22 59 -36 -4 -10 -12 -8 -35 9 -22 16 -32 18 -35 10 -6 -16 -33 9
-32 29 0 10 2 10 6 0 4 -10 8 -10 21 0z m60 -88 c-3 -2 -14 5 -25 16 -12 10
-24 16 -27 12 -4 -3 -4 2 0 12 6 16 9 15 31 -9 14 -14 23 -28 21 -31z m-73 26
c-3 -5 3 -10 14 -10 15 0 21 -6 21 -22 0 -17 -3 -20 -9 -9 -5 8 -16 11 -25 8
-8 -3 -18 -1 -22 5 -5 7 -2 8 6 3 10 -6 12 -4 7 7 -3 9 -3 19 0 22 10 10 15 7
8 -4z"/>
<path d="M12675 3820 c-4 -17 -5 -34 -2 -36 2 -3 7 10 11 27 8 42 0 50 -9 9z"/>
<path d="M12694 3647 c1 -81 -2 -147 -5 -147 -4 0 -9 -19 -12 -42 -3 -23 -19
-60 -35 -83 -21 -31 -25 -42 -14 -42 8 0 28 28 46 66 29 61 31 75 34 191 2 69
-1 143 -6 165 -6 29 -8 1 -8 -108z"/>
<path d="M12139 3518 c4 -28 6 -29 9 -9 2 13 0 27 -5 32 -6 6 -7 -3 -4 -23z"/>
<path d="M2376 3419 c-3 -35 -9 -87 -12 -114 -5 -47 4 -89 41 -177 5 -13 0
-21 -21 -29 l-29 -12 33 -9 c17 -5 32 -11 32 -14 0 -12 -83 9 -126 32 -37 20
-43 21 -35 6 5 -9 25 -33 45 -51 45 -43 48 -66 4 -25 -31 28 -31 28 -16 3 l16
-26 -50 -12 -49 -13 57 -35 c31 -19 70 -37 85 -40 30 -6 40 -23 14 -23 -21 0
-19 -9 6 -29 l21 -17 -25 -11 c-21 -10 -32 -8 -61 7 -20 10 -36 15 -36 11 0
-11 38 -40 44 -34 3 4 6 2 6 -4 0 -11 -19 -14 -215 -39 -141 -17 -195 -32
-195 -52 0 -9 -6 -12 -16 -8 -11 4 -36 -10 -73 -41 -75 -63 -76 -65 -90 -92
-7 -12 -15 -20 -18 -18 -7 8 26 56 73 109 24 25 45 41 47 35 2 -6 14 15 26 47
13 31 21 59 19 62 -3 2 -29 5 -58 7 l-53 2 -19 -55 c-11 -30 -30 -100 -42
-155 -19 -83 -26 -100 -42 -100 -11 0 -25 12 -33 30 -8 17 -24 37 -35 45 -12
8 -47 38 -78 67 -32 29 -61 53 -65 53 -5 0 -28 -18 -53 -39 -42 -37 -44 -40
-29 -58 9 -10 19 -26 22 -35 3 -10 23 -24 43 -33 49 -20 38 -28 -21 -15 -26 6
-50 9 -52 7 -2 -3 -14 -24 -26 -48 -18 -35 -28 -45 -52 -47 -16 -2 -40 -13
-51 -24 -17 -15 -23 -16 -27 -6 -4 9 -6 8 -6 -3 -1 -9 -12 -24 -26 -33 -22
-14 -25 -15 -25 -1 0 8 -4 15 -9 15 -6 0 -37 23 -70 50 -33 28 -65 50 -70 50
-6 0 -26 -14 -45 -30 -26 -23 -42 -30 -70 -28 -38 3 -46 18 -48 88 -1 17 -5
33 -10 36 -4 3 -45 2 -89 -2 -72 -6 -81 -9 -90 -30 -6 -18 -16 -24 -38 -24
-20 0 -41 -12 -68 -38 -39 -38 -70 -57 -87 -53 -4 1 -14 -6 -22 -16 -12 -16
-14 -15 -15 17 -2 35 -5 71 -7 101 -2 18 -47 31 -80 22 -20 -5 -22 -12 -21
-84 1 -77 2 -79 35 -109 32 -28 46 -34 67 -31 4 1 5 -9 2 -22 -4 -16 1 -29 18
-45 24 -22 24 -25 12 -83 -11 -51 -11 -59 1 -55 8 3 14 2 14 -3 0 -13 -43 -21
-55 -11 -8 6 -11 45 -11 105 l1 96 -36 18 -36 19 0 -29 c0 -16 4 -29 9 -29 4
0 8 -15 8 -33 0 -18 6 -39 13 -46 9 -11 9 -12 0 -7 -9 5 -11 -1 -7 -24 8 -35
-2 -40 -16 -7 -7 15 -9 -67 -7 -247 2 -187 6 -271 14 -273 6 -2 9 -12 6 -22
-3 -12 7 -32 26 -52 17 -19 29 -27 25 -18 -3 9 2 23 10 32 11 11 16 37 17 89
1 40 5 84 9 98 l8 25 1 -25 c1 -22 3 -23 12 -8 5 10 16 15 24 12 8 -4 15 -2
15 4 0 5 19 22 41 37 35 23 45 25 65 16 13 -6 24 -18 24 -27 0 -20 22 -39 67
-59 l32 -14 -22 -64 c-13 -36 -29 -72 -36 -81 -7 -8 -10 -19 -7 -25 3 -5 0
-12 -6 -14 -10 -4 -9 -8 2 -17 11 -9 12 -13 3 -17 -7 -2 -13 -11 -13 -18 0
-13 -55 -22 -158 -27 l-53 -2 -53 70 c-38 50 -53 79 -54 103 0 18 -3 35 -6 38
-7 8 -18 -78 -14 -121 3 -36 8 -43 53 -70 56 -35 84 -36 371 -21 94 5 147 4
160 -3 11 -6 26 -7 33 -3 11 7 11 9 0 13 -9 3 -10 6 -2 11 15 9 29 -16 38 -70
l7 -42 -37 10 c-20 6 -40 8 -43 4 -3 -3 0 -38 6 -78 21 -127 26 -197 13 -197
-22 0 -11 -39 16 -58 46 -31 116 -53 500 -156 95 -26 191 -53 213 -61 41 -14
80 -7 80 14 0 8 99 126 156 187 16 17 50 58 74 90 25 32 48 61 53 62 4 2 7 56
7 120 1 107 2 114 14 86 8 -17 21 -34 30 -37 10 -4 15 -17 15 -34 l-2 -28 -4
28 c-5 32 -23 37 -22 5 1 -27 17 -70 18 -49 1 8 3 12 6 10 2 -3 -9 -41 -25
-85 -17 -43 -30 -94 -30 -111 0 -23 -5 -33 -15 -33 -8 0 -18 -12 -21 -26 -5
-21 -2 -31 17 -45 43 -32 271 -132 313 -136 23 -3 136 2 251 11 116 9 275 20
355 26 80 5 169 13 199 16 l54 7 -7 -102 -7 -102 63 32 c88 44 152 104 158
149 l5 35 105 11 c58 6 167 17 242 24 75 7 142 16 149 21 32 20 -14 22 -184 9
-100 -8 -211 -14 -247 -15 l-64 0 -13 46 c-15 52 -11 50 -134 70 -74 12 -77
14 -87 45 l-9 32 45 -20 c32 -15 59 -19 94 -16 36 4 54 1 65 -10 10 -10 29
-15 54 -13 28 2 42 -3 55 -18 12 -13 22 -17 29 -11 7 6 30 -1 66 -20 85 -46
87 -44 144 73 28 56 51 105 53 109 2 4 -26 22 -62 40 -59 29 -64 33 -44 41 14
5 24 4 26 -2 2 -6 12 -11 23 -11 24 0 26 37 2 43 -10 3 -5 5 12 6 46 1 178 25
193 34 7 5 26 6 42 2 39 -9 68 9 79 48 l9 32 2 -30 c5 -77 5 -91 -4 -102 -7
-10 18 -13 115 -15 68 0 131 0 139 0 8 1 126 5 262 8 187 6 245 10 238 19 -11
14 6 35 29 36 10 0 12 2 4 6 -8 3 -4 12 12 26 27 25 29 45 25 197 -2 67 -5 86
-10 65 l-8 -30 -1 35 c-1 24 -4 31 -10 21 -6 -9 -16 -11 -27 -7 -18 7 -18 8 1
18 11 6 22 12 24 14 2 2 -7 13 -20 24 l-24 20 23 6 c12 4 25 17 28 31 4 16 9
21 14 13 5 -7 9 0 12 19 l5 31 -238 0 c-197 0 -238 2 -242 14 -11 27 -62 45
-177 61 -63 8 -116 17 -118 20 -5 5 8 10 49 19 39 8 81 46 76 67 -3 12 2 19
17 23 38 9 228 26 369 32 76 3 137 7 135 9 -2 2 -39 6 -82 9 -44 4 -91 9 -104
13 -23 5 -23 7 -9 18 15 11 12 14 -26 29 -23 9 -52 15 -62 15 -13 -1 -9 -4 10
-9 l30 -8 -32 -1 c-18 0 -33 4 -33 9 0 6 -10 10 -22 9 -22 0 -22 -1 -3 -9 14
-5 2 -8 -37 -8 -32 1 -58 5 -58 10 0 6 -11 8 -24 6 -16 -3 -23 -1 -20 7 3 7
-6 28 -19 48 -19 28 -27 33 -36 24 -7 -7 0 20 15 58 34 89 64 209 64 258 0 72
-37 100 -75 57 -10 -11 -21 -17 -24 -13 -3 5 -43 21 -89 36 -70 24 -85 27 -99
15 -14 -11 -15 -10 -9 8 6 20 4 20 -66 12 -40 -5 -87 -6 -104 -3 -31 5 -32 4
-44 -45 -11 -46 -13 -49 -26 -33 -13 16 -14 15 -12 -18 1 -24 -5 -42 -20 -57
-12 -12 -24 -17 -27 -12 -4 6 -16 10 -28 10 -22 -1 -22 -1 -3 -15 14 -11 16
-15 5 -15 -10 -1 -9 -3 4 -11 9 -5 22 -7 29 -3 7 4 8 3 4 -5 -5 -7 -16 -9 -29
-5 -20 6 -20 6 -4 -10 9 -10 21 -15 25 -12 5 3 8 -10 8 -29 -1 -29 -3 -32 -19
-24 -11 7 -23 6 -35 -1 -15 -10 -15 -10 4 -5 14 3 27 -2 40 -16 19 -22 19 -22
-3 -10 -34 18 -36 13 -6 -14 22 -19 23 -24 8 -18 -19 6 -19 6 -2 -14 9 -11 17
-27 17 -36 0 -9 4 -18 10 -22 5 -3 6 -13 3 -22 -5 -13 -2 -15 12 -10 15 6 16
5 5 -8 -7 -8 -16 -12 -21 -9 -5 3 -9 0 -9 -6 0 -8 7 -9 18 -5 31 12 123 22
128 13 3 -4 -11 -8 -31 -8 -20 0 -34 -4 -31 -9 4 -5 -2 -7 -13 -4 -14 3 -29
-8 -55 -43 -20 -26 -36 -52 -36 -58 0 -6 48 -39 108 -73 77 -44 106 -66 104
-78 -2 -9 2 -23 9 -32 9 -10 9 -17 2 -21 -5 -4 -10 -27 -9 -52 0 -25 0 -91 -2
-147 -2 -88 -4 -103 -18 -103 -9 0 -23 8 -30 18 -13 16 -14 16 -20 -4 -4 -17
-16 -23 -51 -28 -64 -9 -73 -8 -71 6 2 7 -4 13 -12 13 -9 0 -14 -7 -12 -17 2
-13 -4 -18 -19 -18 -12 0 -19 -3 -15 -7 4 -4 -35 -17 -85 -30 -87 -21 -114
-36 -103 -55 3 -4 16 -8 29 -8 13 0 27 -5 31 -11 4 -7 0 -9 -12 -5 -34 10
-179 9 -207 -3 -39 -15 -44 -14 -21 5 15 12 16 15 2 10 -9 -2 -33 -8 -52 -12
-31 -5 -36 -4 -36 13 0 10 17 36 38 57 20 21 37 42 37 45 0 3 12 26 27 51 14
25 36 75 48 112 12 37 32 83 46 103 13 20 24 41 24 48 0 7 9 36 20 64 15 40
17 53 7 53 -7 0 -58 22 -113 50 -54 27 -99 50 -100 50 -1 0 -15 -31 -33 -68
-29 -64 -34 -69 -63 -70 -17 0 -40 4 -51 10 -14 7 -17 7 -13 -1 11 -17 -9 -13
-74 14 -33 14 -66 25 -75 25 -8 0 -15 4 -15 8 0 5 -6 9 -12 9 -7 0 -21 4 -32
8 -16 7 -17 5 -11 -14 6 -20 5 -21 -12 -13 -10 6 -32 21 -50 35 l-32 24 30 0
c18 0 25 -3 17 -8 -7 -4 -9 -11 -5 -15 3 -4 15 -1 24 7 16 13 17 12 4 -3 -13
-17 -2 -26 13 -11 10 10 75 10 69 0 -10 -16 29 -18 52 -3 23 15 28 15 58 1 30
-15 31 -15 12 0 -27 23 -118 69 -111 56 4 -5 2 -13 -4 -16 -6 -4 -10 -3 -9 2
1 4 0 13 -1 18 -1 6 -1 52 -1 104 2 85 0 93 -14 81 -14 -11 -15 -9 -10 24 4
22 2 36 -4 36 -6 0 -11 -4 -11 -10 0 -5 -4 -10 -8 -10 -5 0 -7 16 -6 35 3 39
-2 44 -22 18 -12 -16 -13 -12 -14 28 0 27 6 53 16 65 14 17 15 17 10 1 -3 -10
-3 -30 0 -44 7 -25 8 -25 20 -8 13 17 14 14 14 -26 1 -41 2 -43 16 -24 10 13
13 32 9 55 -3 19 -6 62 -6 95 -1 81 -8 117 -22 112 -7 -2 -10 -20 -9 -45 4
-43 -4 -82 -16 -82 -12 0 -13 81 -2 95 8 10 5 17 -12 30 l-23 16 28 -7 c38 -9
34 9 -8 32 -21 11 -33 24 -30 32 3 8 -2 12 -13 10 -9 -2 -16 2 -15 9 2 8 -4
10 -14 6 -13 -5 -15 -2 -10 11 5 14 3 17 -8 12 -8 -3 -15 0 -15 5 0 6 -18 27
-40 46 -22 20 -40 40 -40 46 0 6 10 1 23 -11 13 -12 28 -22 34 -22 5 0 31 18
56 40 25 23 49 41 52 40 19 -1 26 3 46 33 l22 32 -34 -32 c-26 -23 -37 -28
-45 -20 -9 9 -5 18 15 35 l26 23 -39 -16 c-33 -13 -42 -13 -53 -2 -11 10 -10
13 5 14 32 3 86 38 100 66 19 40 -6 95 -49 104 -27 5 -29 7 -13 16 30 15 44
39 44 73 0 38 -3 41 -72 59 -46 12 -56 12 -77 -2 -13 -8 -28 -28 -34 -43 l-11
-28 -15 28 c-9 15 -37 52 -64 81 -38 43 -49 51 -57 39 -10 -16 -9 -17 -39 33
-12 20 -19 37 -14 37 4 0 1 6 -8 13 -8 7 -20 21 -26 31 -9 15 -12 7 -17 -45z
m34 -9 c0 -5 -5 -10 -11 -10 -5 0 -7 5 -4 10 3 6 8 10 11 10 2 0 4 -4 4 -10z
m-7 -117 c4 -20 2 -33 -3 -33 -16 0 -32 52 -24 80 6 23 7 24 14 5 4 -11 10
-35 13 -52z m50 24 c-7 -11 -23 12 -23 33 1 12 4 11 15 -4 8 -10 12 -23 8 -29z
m39 -9 c-7 -7 -12 -8 -12 -2 0 14 12 26 19 19 2 -3 -1 -11 -7 -17z m31 -25
c-4 -10 -2 -14 4 -10 17 11 24 -23 9 -44 -12 -18 -14 -17 -19 17 -4 21 -4 41
-1 46 9 14 14 9 7 -9z m184 -30 c-2 -10 -11 -32 -20 -50 -12 -23 -22 -30 -37
-26 -26 7 -26 33 1 67 24 30 61 36 56 9z m91 -39 c4 -36 -18 -59 -46 -50 -18
6 -19 11 -10 47 9 33 15 39 32 37 15 -2 22 -11 24 -34z m-212 -21 c-10 -10
-56 -11 -56 -1 0 5 9 6 22 3 16 -6 20 -4 15 8 -3 8 0 20 6 26 9 10 13 7 15 -9
2 -12 1 -24 -2 -27z m134 -3 c-13 -30 -30 -41 -30 -17 0 16 30 60 37 53 3 -3
0 -19 -7 -36z m50 -109 c14 -26 13 -44 -4 -66 -13 -17 -14 -14 -17 33 -4 54 3
66 21 33z m-43 -76 c-6 -15 -47 -22 -47 -7 0 8 42 30 49 25 2 -1 1 -9 -2 -18z
m-173 -187 c4 -24 17 -59 30 -78 39 -59 66 -118 66 -142 -1 -21 -4 -19 -32 15
-39 48 -82 72 -96 54 -12 -15 -16 -107 -6 -156 6 -30 4 -33 -10 -28 -10 4 -22
7 -27 7 -5 0 -9 4 -9 10 0 5 8 7 18 4 15 -5 15 -4 2 8 -11 9 -16 39 -19 108
-1 52 -4 96 -6 98 -1 2 -21 -30 -43 -70 -22 -40 -36 -74 -31 -76 5 -2 9 -15 9
-28 0 -14 -4 -22 -10 -19 -6 4 -10 -15 -10 -49 0 -31 5 -56 10 -56 6 0 10 -21
10 -46 0 -30 -4 -43 -11 -38 -8 5 -9 -7 -4 -42 4 -27 7 -89 6 -137 -1 -80 1
-88 16 -83 10 3 76 8 146 11 108 5 132 4 145 -9 56 -51 85 -71 123 -87 14 -5
31 -20 38 -32 27 -54 54 -157 56 -217 0 -36 4 -70 8 -76 3 -6 9 -30 13 -52 5
-33 3 -43 -10 -48 -9 -3 -16 -12 -16 -19 0 -11 -25 -14 -112 -14 -62 0 -204
-7 -316 -15 -126 -10 -211 -12 -225 -6 -20 8 -20 9 -2 10 17 0 17 2 5 10 -13
8 -12 10 3 10 20 0 24 38 4 46 -8 3 -14 21 -15 41 -1 20 -6 39 -12 43 -6 4 -8
14 -4 23 3 10 1 17 -6 17 -6 0 -8 -4 -5 -10 3 -5 -1 -10 -9 -10 -8 0 -16 -9
-18 -20 -3 -18 -4 -18 -14 4 -10 21 -9 23 4 18 9 -3 13 -1 9 5 -4 6 0 14 9 17
12 4 14 13 10 31 -5 18 -2 27 9 31 8 4 15 14 15 23 -1 15 -2 15 -13 0 -7 -9
-18 -14 -24 -12 -8 3 -13 -5 -13 -23 0 -35 -7 -28 -15 16 -8 43 -11 46 -30 30
-10 -8 -15 -9 -15 -1 0 22 -30 11 -31 -11 0 -22 -1 -22 -9 -3 -5 11 -11 29
-15 40 -4 13 -8 16 -14 7 -4 -7 -12 1 -20 24 -19 51 -23 36 -7 -22 24 -85 28
-106 16 -99 -6 4 -10 -4 -10 -19 0 -29 19 -36 21 -8 1 9 5 1 9 -18 5 -19 7
-37 4 -39 -2 -2 -4 1 -4 7 0 7 -4 12 -10 12 -5 0 -7 -13 -3 -30 6 -34 -2 -37
-35 -14 -20 14 -23 24 -21 77 1 34 -2 91 -6 126 -6 48 -5 62 3 57 7 -4 12 -2
12 3 0 6 -4 11 -10 11 -5 0 -10 23 -10 50 0 28 -4 50 -9 50 -5 0 -27 -20 -49
-45 l-40 -45 -59 13 c-49 12 -58 17 -61 38 -2 13 -14 34 -28 47 -28 27 -29 35
-9 52 26 21 17 35 -32 49 -49 14 -99 51 -69 51 14 0 30 56 51 173 4 20 11 37
16 37 4 0 56 -40 116 -90 59 -49 111 -90 116 -90 4 0 7 14 7 30 0 28 2 30 20
20 15 -8 20 -21 20 -51 0 -39 0 -39 -24 -24 l-24 16 5 -43 c4 -29 14 -50 32
-66 l26 -23 -25 7 c-21 5 -23 4 -12 -7 12 -13 114 -15 134 -3 5 4 7 17 4 30
-7 27 1 30 27 10 21 -16 22 -30 2 -22 -8 3 -15 1 -15 -4 0 -6 18 -10 40 -10
46 0 52 11 15 28 -20 9 -25 19 -25 47 0 32 3 36 20 30 18 -6 20 -2 20 38 0 36
-4 46 -23 54 -18 8 -24 20 -25 53 -3 38 -1 41 18 35 18 -6 20 -2 20 39 0 36
-4 46 -20 51 -14 4 -20 15 -20 35 0 16 -3 36 -7 45 -5 14 -2 16 15 10 20 -6
22 -3 22 39 0 35 -5 48 -20 56 -28 15 -25 30 6 30 14 0 42 11 62 25 20 14 42
25 49 25 7 0 13 4 13 9 0 5 9 12 19 16 11 3 37 20 58 36 50 41 87 58 48 23
-16 -14 -22 -24 -13 -21 15 5 16 2 2 -41 -7 -26 -14 -51 -14 -55 0 -5 -4 -6
-8 -3 -4 2 -8 -4 -9 -14 -2 -25 21 -16 35 13 6 12 14 42 18 67 9 60 36 95 87
113 23 9 45 16 48 16 4 1 9 -18 13 -41z m-504 -99 c0 -12 -46 -23 -60 -14 -16
10 19 33 42 27 10 -2 18 -8 18 -13z m40 11 c0 -5 -5 -10 -11 -10 -5 0 -7 5 -4
10 3 6 8 10 11 10 2 0 4 -4 4 -10z m-130 -30 c0 -13 -11 -13 -30 0 -12 8 -11
10 8 10 12 0 22 -4 22 -10z m189 -9 c10 -6 5 -11 -18 -16 -36 -8 -53 1 -31 15
19 12 31 12 49 1z m58 3 c-3 -3 -12 -4 -19 -1 -8 3 -5 6 6 6 11 1 17 -2 13 -5z
m-216 -24 c14 -8 19 -21 19 -50 0 -40 -5 -45 -34 -34 -11 4 -16 19 -16 50 0
48 2 49 31 34z m77 -2 c-6 -18 -22 -20 -43 -3 -19 14 -18 14 13 15 22 0 32 -4
30 -12z m33 -38 c25 -14 29 -96 3 -86 -9 3 -20 6 -25 6 -5 0 -9 20 -9 45 0 49
1 50 31 35z m-157 -36 c11 -4 16 -19 16 -48 0 -35 4 -43 30 -58 24 -14 30 -24
30 -53 0 -35 -5 -40 -34 -29 -11 4 -16 19 -16 45 0 31 -6 43 -30 60 -24 18
-29 29 -27 56 2 34 5 37 31 27z m838 -36 c-9 -9 -15 -9 -24 1 -9 10 -9 12 -1
7 6 -3 15 -1 18 5 4 5 10 8 13 4 3 -3 0 -11 -6 -17z m-737 0 c20 -9 25 -18 25
-50 0 -37 -11 -47 -36 -30 -10 6 -27 92 -19 92 2 0 16 -5 30 -12z m-1240 -38
c3 -6 4 -18 1 -28 -5 -13 -16 -17 -53 -16 -40 1 -48 5 -51 22 -3 17 3 21 30
25 61 7 67 7 73 -3z m1975 -32 c0 -63 -16 -81 -25 -29 -7 40 -8 41 -25 26 -12
-11 -20 -13 -25 -6 -3 6 -1 11 5 11 7 0 10 6 7 13 -4 10 2 13 19 9 14 -2 24 0
24 7 0 6 5 11 10 11 6 0 10 -19 10 -42z m77 -20 c-2 -13 -4 -3 -4 22 0 25 2
35 4 23 2 -13 2 -33 0 -45z m-939 18 c3 -26 2 -27 -35 -20 -49 9 -51 11 -19
23 14 6 26 15 26 22 0 23 25 1 28 -25z m-158 14 c0 -5 -2 -10 -4 -10 -3 0 -8
5 -11 10 -3 6 -1 10 4 10 6 0 11 -4 11 -10z m681 0 c14 -8 19 -21 19 -56 l0
-45 -26 14 c-22 12 -27 21 -28 56 -1 43 3 47 35 31z m189 -10 c24 -15 7 -19
-20 -5 -15 8 -19 14 -10 14 8 1 22 -3 30 -9z m1420 -29 c30 -11 55 -23 55 -28
-4 -60 -19 -182 -24 -189 -3 -5 -21 -14 -38 -21 -32 -11 -33 -10 -33 15 0 36
13 54 33 46 31 -12 17 12 -15 28 -18 8 -53 32 -76 52 -24 20 -50 36 -58 36
-14 0 -19 36 -8 64 9 23 96 21 164 -3z m-2255 -1 c3 -6 -1 -7 -9 -4 -18 7 -21
14 -7 14 6 0 13 -4 16 -10z m820 -10 c8 0 16 -4 20 -10 3 -5 -7 -5 -25 1 -18
7 -27 15 -23 22 5 8 8 8 11 -1 2 -7 10 -12 17 -12z m-507 -6 c25 -17 32 -84
10 -84 -25 0 -37 16 -44 58 -7 46 -1 51 34 26z m458 0 c18 -14 18 -15 -6 -8
-31 8 -50 24 -29 24 8 0 24 -7 35 -16z m-1485 -35 c29 -20 40 -59 17 -59 -19
1 -68 47 -68 65 0 21 16 19 51 -6z m300 11 c30 0 23 -13 -21 -38 -39 -22 -40
-23 -40 -81 l0 -58 108 57 c59 31 134 72 167 90 l60 33 -28 -29 c-16 -16 -35
-40 -42 -54 -15 -29 -30 -100 -18 -84 11 14 53 25 53 13 0 -5 -4 -9 -10 -9 -5
0 -7 -7 -4 -15 4 -8 1 -15 -6 -15 -7 0 -10 -7 -6 -16 9 -25 -12 -45 -40 -38
-24 6 -35 -11 -12 -18 8 -3 7 -12 -6 -29 -10 -13 -17 -18 -15 -9 8 67 -14 90
-48 50 -17 -19 -17 -19 -30 12 -7 17 -16 28 -20 24 -8 -7 -8 -13 -11 -84 -1
-26 -6 -41 -12 -37 -14 9 -12 109 2 123 9 9 8 12 -4 12 -18 0 -38 -48 -38 -90
0 -27 0 -27 -70 -26 -47 0 -70 4 -70 12 0 13 73 227 96 282 10 25 18 32 30 28
8 -3 24 -6 35 -6z m570 0 c14 -8 19 -21 19 -51 0 -36 -2 -39 -19 -30 -12 7
-20 24 -23 51 -4 45 -4 44 23 30z m589 -15 c0 -14 5 -25 10 -25 6 0 9 3 9 8
-3 17 2 32 10 32 5 0 9 -13 9 -30 -1 -32 -2 -33 -32 -21 -19 7 -31 61 -14 61
4 0 8 -11 8 -25z m136 -12 c-7 -7 -26 7 -26 19 0 6 6 6 15 -2 9 -7 13 -15 11
-17z m44 -63 l20 25 -1 -45 c0 -25 -6 -54 -14 -64 -14 -19 -15 -17 -15 18 0
33 -4 39 -35 52 -21 8 -33 19 -29 25 4 8 9 7 14 -1 12 -20 30 -2 32 33 1 19 3
12 5 -18 l4 -50 19 25z m-660 40 c19 -19 28 -80 12 -80 -21 0 -43 29 -49 63
-6 42 6 48 37 17z m432 8 c9 -7 19 -32 23 -56 l7 -44 -30 16 c-26 13 -29 20
-28 56 1 43 4 46 28 28z m1400 -33 c3 -14 1 -28 -3 -31 -5 -3 -9 9 -9 25 0 38
6 40 12 6z m-2640 -11 c24 -5 26 -8 15 -25 -6 -10 -17 -19 -24 -19 -6 0 -14
-6 -16 -12 -3 -7 -6 -2 -6 12 -1 14 -4 20 -9 14 -4 -6 -30 -10 -58 -10 -51 1
-51 1 -36 24 12 18 23 22 61 21 25 0 58 -3 73 -5z m1362 -3 c19 -8 23 -15 19
-32 l-6 -23 -8 22 c-5 12 -13 22 -18 22 -7 0 -7 -9 -1 -25 5 -14 6 -25 2 -26
-4 0 4 -5 18 -11 14 -6 20 -12 13 -15 -7 -2 -21 1 -32 7 -16 8 -21 21 -21 50
0 44 -1 44 34 31z m173 -13 c-3 -8 -6 -5 -6 6 -1 11 2 17 5 13 3 -3 4 -12 1
-19z m-2304 -3 c-3 -9 -8 -14 -10 -11 -3 3 -2 9 2 15 9 16 15 13 8 -4z m1155
-10 c-3 -3 -9 2 -12 12 -6 14 -5 15 5 6 7 -7 10 -15 7 -18z m-923 5 c3 -5 -1
-10 -9 -10 -9 0 -16 5 -16 10 0 6 4 10 9 10 6 0 13 -4 16 -10z m1299 -6 c9 -8
16 -31 16 -50 0 -28 5 -36 25 -44 17 -7 25 -17 25 -34 0 -13 3 -31 6 -40 3 -9
2 -16 -3 -16 -21 0 -42 27 -47 60 -4 31 -27 60 -47 60 -4 0 -9 18 -11 40 -4
43 9 52 36 24z m427 6 c14 -8 19 -21 19 -55 0 -44 0 -44 -25 -33 -21 9 -25 18
-25 55 0 47 2 48 31 33z m325 -86 c-10 -49 -21 -49 -20 1 2 49 16 82 22 52 2
-11 1 -34 -2 -53z m57 46 c3 -11 1 -18 -4 -14 -5 3 -9 12 -9 20 0 20 7 17 13
-6z m-697 -4 c6 -6 10 -86 5 -86 -20 0 -42 29 -48 64 -6 37 -5 38 18 31 13 -4
25 -8 25 -9z m426 -7 c19 -8 24 -18 23 -50 0 -41 -5 -45 -36 -29 -14 8 -19 21
-19 50 0 44 0 44 32 29z m240 -59 c-5 -49 -17 -61 -16 -16 1 28 10 56 17 56 2
0 1 -18 -1 -40z m62 25 c-4 -8 -8 -15 -10 -15 -2 0 -4 7 -4 15 0 8 4 15 10 15
5 0 7 -7 4 -15z m1270 -9 c-7 -17 -44 -23 -44 -6 0 9 14 14 33 11 4 0 7 4 7
11 0 6 2 9 5 6 3 -3 3 -13 -1 -22z m-1438 -6 c10 0 14 -12 14 -40 0 -32 -4
-40 -17 -39 -11 0 -13 3 -5 6 22 9 14 58 -10 69 -13 6 -17 9 -10 7 8 -2 20 -3
28 -3z m-2161 -10 c3 -5 -3 -10 -15 -10 -12 0 -18 5 -15 10 3 6 10 10 15 10 5
0 12 -4 15 -10z m1976 -10 c14 -8 18 -20 17 -50 -1 -22 -4 -40 -8 -40 -19 0
-39 29 -43 63 -5 39 1 44 34 27z m308 -44 c-9 -8 -10 -7 -5 7 3 10 7 24 7 30
1 7 3 4 6 -7 3 -10 -1 -23 -8 -30z m1133 15 c-5 -3 -12 -15 -15 -26 -4 -16 -5
-15 -6 6 -1 29 7 41 21 32 7 -3 7 -8 0 -12z m-3367 -30 c-4 -14 -10 -27 -15
-29 -4 -2 -6 -11 -3 -21 6 -23 -14 -38 -30 -22 -8 8 -8 11 0 11 15 0 23 36 10
49 -13 13 6 38 29 38 12 0 14 -7 9 -26z m1439 13 c10 -4 16 -18 16 -41 0 -28
-3 -34 -16 -29 -9 3 -18 6 -20 6 -2 0 -4 16 -4 35 0 38 0 38 24 29z m607 -4
c5 0 9 -4 9 -9 0 -4 -11 -6 -25 -3 -14 2 -25 9 -25 14 0 6 7 7 16 4 9 -3 20
-6 25 -6z m109 -15 c-7 -9 -15 -13 -18 -10 -3 2 1 11 8 20 7 9 15 13 18 10 3
-2 -1 -11 -8 -20z m-270 -22 c0 -12 -3 -11 -16 1 -19 20 -25 20 -18 1 4 -8 1
-15 -5 -15 -6 0 -11 11 -11 25 0 23 2 24 25 13 14 -6 25 -18 25 -25z m-1003 5
c-3 -8 -6 -5 -6 6 -1 11 2 17 5 13 3 -3 4 -12 1 -19z m1143 2 c0 -5 -2 -10 -4
-10 -3 0 -8 5 -11 10 -3 6 -1 10 4 10 6 0 11 -4 11 -10z m-1290 -30 c0 -5 -8
-10 -17 -11 -11 0 -13 -3 -5 -6 14 -5 17 -69 3 -77 -11 -7 -23 22 -15 36 4 6
2 13 -4 17 -18 11 -2 51 19 51 11 0 19 -4 19 -10z m1463 3 c-7 -2 -19 -2 -25
0 -7 3 -2 5 12 5 14 0 19 -2 13 -5z m162 -23 c8 -13 -5 -13 -25 0 -13 8 -13
10 2 10 9 0 20 -4 23 -10z m-1245 -7 c0 -15 -15 -30 -37 -37 -29 -9 -42 13
-18 31 20 14 55 18 55 6z m-450 -7 c0 -2 -7 -7 -16 -10 -8 -3 -12 -2 -9 4 6
10 25 14 25 6z m-61 -27 c30 -10 31 -13 31 -65 0 -55 12 -77 56 -102 18 -10
18 -12 2 -28 -15 -15 -25 -14 -152 26 -75 24 -136 47 -136 51 0 3 10 13 23 22
12 8 47 35 77 61 60 52 56 50 99 35z m2808 -22 c12 -7 12 -12 -4 -29 -13 -16
-15 -22 -5 -25 7 -3 24 -28 37 -56 l24 -52 -35 40 c-43 49 -58 83 -45 99 6 7
8 23 5 37 -2 13 -1 17 2 9 4 -8 13 -19 21 -23z m-3407 3 c0 -5 -7 -10 -16 -10
-8 0 -12 5 -9 10 3 6 10 10 16 10 5 0 9 -4 9 -10z m1177 -36 c-3 -3 -12 -4
-19 -1 -8 3 -5 6 6 6 11 1 17 -2 13 -5z m-943 -40 c3 -8 2 -12 -4 -9 -6 3 -10
10 -10 16 0 14 7 11 14 -7z m46 -26 c0 -9 -62 -11 -84 -2 -20 8 -21 24 -1 24
8 0 15 -4 15 -10 0 -5 11 -9 24 -8 18 2 22 7 18 23 -4 20 -4 20 11 0 9 -11 17
-23 17 -27z m634 22 c-15 -15 -94 -24 -94 -11 0 6 15 11 33 11 17 0 39 4 47
10 17 11 28 4 14 -10z m56 10 c0 -5 -2 -10 -4 -10 -3 0 -8 5 -11 10 -3 6 -1
10 4 10 6 0 11 -4 11 -10z m2584 -29 c16 -9 30 -24 32 -34 2 -17 1 -17 -14 -5
-9 8 -33 21 -52 28 -19 8 -44 20 -55 27 -18 13 -16 14 20 7 22 -3 53 -14 69
-23z m-2847 13 c-3 -3 -12 -4 -19 -1 -8 3 -5 6 6 6 11 1 17 -2 13 -5z m-667
-36 c0 -11 -12 -10 -30 2 -13 9 -13 11 0 19 14 9 29 -2 30 -21z m1175 -42 c19
-13 17 -16 -25 -62 -24 -27 -54 -60 -67 -73 -13 -13 -23 -29 -23 -35 0 -7 -3
-6 -8 1 -5 7 -64 30 -133 50 -68 20 -126 39 -129 41 -3 2 3 10 13 17 13 10 27
11 50 4 57 -17 127 -19 127 -4 0 8 7 11 21 8 25 -7 109 35 109 54 0 17 41 16
65 -1z m2151 -36 c-9 -35 -11 -38 -18 -20 -5 12 -3 29 5 40 19 32 25 23 13
-20z m-1838 -60 c0 -10 -2 -9 -5 3 -3 11 -11 16 -19 13 -8 -3 -14 1 -14 8 0 8
-3 23 -6 33 -4 11 4 6 20 -12 14 -16 25 -37 24 -45z m2043 -7 c8 -10 -10 2
-38 26 -29 24 -53 46 -53 48 0 7 75 -54 91 -74z m-2012 3 c-9 -8 -10 -7 -5 7
3 10 7 26 7 35 1 9 4 6 6 -7 3 -13 -1 -28 -8 -35z m-333 -41 c-7 -33 -18 -70
-25 -83 -12 -23 -13 -23 -38 -6 -20 12 -25 13 -21 3 3 -8 -2 -34 -12 -59 l-18
-45 -3 61 c-3 51 -2 61 11 56 12 -4 13 -2 3 8 -10 11 0 25 50 71 34 31 63 56
64 55 1 0 -4 -28 -11 -61z m2667 -67 c5 1 6 -1 3 -6 -7 -12 23 -54 35 -47 5 4
9 15 9 26 0 10 5 19 10 19 6 0 8 -11 4 -25 -5 -21 -3 -24 15 -20 13 2 30 -4
41 -15 19 -19 19 -20 -8 -47 -22 -23 -28 -25 -34 -13 -4 8 -6 2 -4 -15 1 -17
6 -37 10 -44 7 -10 4 -10 -12 0 -12 7 -18 20 -15 33 3 20 3 20 -5 1 -5 -11 -8
-30 -7 -42 3 -26 -13 -31 -21 -8 -4 10 -21 0 -61 -40 -31 -30 -64 -55 -74 -55
-14 0 -79 36 -97 55 -3 2 5 19 17 38 32 53 64 61 138 38 50 -16 70 -10 79 24
9 35 -42 137 -103 207 l-46 53 59 -60 c33 -33 63 -58 67 -57z m-2311 77 c-2
-14 -6 -25 -8 -25 -2 0 -4 11 -4 25 0 14 4 25 9 25 4 0 6 -11 3 -25z m-1163
-47 c1 -26 -1 -27 -26 -17 -16 5 -35 12 -43 15 -11 4 -6 12 20 34 31 25 36 27
42 12 4 -9 7 -29 7 -44z m1131 42 c0 -5 -4 -10 -10 -10 -5 0 -10 5 -10 10 0 6
5 10 10 10 6 0 10 -4 10 -10z m98 -57 c5 -17 6 -36 0 -48 -8 -18 -8 -18 -4 2
2 13 0 26 -5 29 -9 5 -13 44 -5 44 2 0 8 -12 14 -27z m2282 -33 c0 -5 -4 -10
-10 -10 -5 0 -10 5 -10 10 0 6 5 10 10 10 6 0 10 -4 10 -10z m-2263 -52 c-3
-8 -6 -5 -6 6 -1 11 2 17 5 13 3 -3 4 -12 1 -19z m1911 -116 c15 -16 15 -29 2
-37 -6 -3 -7 1 -4 9 5 12 -1 16 -25 16 -18 0 -38 9 -51 22 -23 24 -25 34 -10
43 6 4 8 16 4 27 -4 12 9 3 32 -23 22 -24 45 -50 52 -57z m-1231 49 c12 -9 21
-20 19 -26 -7 -26 -131 -64 -228 -69 -21 -1 -43 -7 -50 -14 -7 -7 -20 -12 -29
-12 -10 0 -21 -4 -24 -10 -3 -5 -15 -10 -26 -10 -11 0 -32 -6 -47 -14 -16 -8
-70 -19 -121 -25 -69 -8 -97 -15 -107 -28 -12 -17 -13 -16 -7 5 4 15 13 22 30
22 20 0 23 3 14 14 -6 8 -8 21 -4 32 6 15 20 19 67 21 53 2 88 15 75 27 -3 3
-27 7 -54 9 -54 5 -61 15 -24 34 13 7 23 20 21 29 -3 12 2 14 20 9 36 -11 58
-27 28 -20 -22 5 -23 4 -7 -5 21 -13 52 -6 42 10 -4 6 5 10 20 10 14 0 23 4
20 10 -4 6 20 9 62 8 37 0 75 2 83 5 52 21 192 13 227 -12z m-1107 -12 c0 -6
-3 -8 -7 -6 -8 5 -15 -33 -16 -91 -1 -23 -5 -31 -15 -27 -8 3 -19 5 -26 5 -7
0 -21 6 -31 14 -18 13 -16 16 29 70 44 50 66 62 66 35z m529 0 c-17 -11 -39
-12 -39 -1 0 4 12 8 27 9 19 1 22 -1 12 -8z m48 -15 c-3 -3 -12 -4 -19 -1 -8
3 -5 6 6 6 11 1 17 -2 13 -5z m740 -56 c-3 -8 -6 -5 -6 6 -1 11 2 17 5 13 3
-3 4 -12 1 -19z m1333 -23 c-13 -14 -26 -23 -28 -20 -3 3 5 16 18 30 13 14 26
23 28 20 3 -3 -5 -16 -18 -30z m84 17 c2 -4 -4 -8 -14 -8 -10 0 -16 4 -14 8 3
4 9 8 14 8 5 0 11 -4 14 -8z m-1024 -27 c-13 -16 -49 -19 -88 -8 -36 9 -6 23
52 23 42 0 47 -2 36 -15z m-1485 -6 c11 -17 -1 -21 -15 -4 -8 9 -8 15 -2 15 6
0 14 -5 17 -11z m1095 4 c0 -5 -11 -26 -25 -48 -19 -31 -24 -35 -25 -19 0 11
10 33 23 47 24 29 27 30 27 20z m-1408 -16 c15 -12 15 -17 1 -60 -9 -26 -17
-46 -19 -45 -1 2 -5 25 -9 52 -3 27 -8 52 -11 57 -8 13 19 10 38 -4z m1763
-36 c-3 -2 -16 -11 -29 -20 -13 -9 -55 -37 -94 -63 -39 -27 -79 -48 -89 -48
-14 0 -12 4 8 18 40 26 112 94 132 125 18 27 18 27 47 10 16 -9 27 -19 25 -22z
m-507 6 c2 -10 11 -17 21 -17 15 0 16 -6 10 -47 -5 -27 -17 -79 -28 -118 -11
-38 -20 -88 -21 -110 -2 -46 -11 -76 -25 -78 -6 -1 -10 -12 -10 -23 1 -20 -6
-22 -100 -28 -55 -4 -116 -9 -136 -12 -33 -6 -36 -4 -35 17 1 15 -5 24 -14 24
-8 0 -15 -9 -15 -20 0 -23 -23 -33 -82 -34 -36 -1 -41 1 -36 19 4 16 0 20 -17
20 -17 0 -21 -4 -17 -20 6 -25 -5 -28 -118 -32 l-90 -3 -1 35 c-1 19 3 42 9
51 6 10 6 22 0 33 -5 10 -6 43 -2 79 4 34 5 66 2 70 -3 5 -7 33 -10 63 -3 49
-2 54 19 58 21 4 143 14 243 20 22 1 54 8 70 15 19 8 48 10 77 7 35 -5 49 -3
55 8 4 8 29 17 54 21 37 6 47 4 52 -9 9 -24 41 -21 34 3 -6 24 11 30 68 27 28
-2 41 -8 43 -19z m242 -2 c0 -8 -7 -15 -15 -15 -22 0 -29 -24 -15 -52 l11 -23
-20 24 c-24 27 -27 51 -7 51 7 0 19 7 26 15 7 8 14 15 16 15 2 0 4 -7 4 -15z
m-110 -65 c6 22 8 23 15 8 10 -25 -2 -50 -22 -46 -12 2 -19 14 -20 33 l-3 30
12 -25 11 -25 7 25z"/>
<path d="M2525 2811 c-3 -5 -2 -12 3 -15 5 -3 9 1 9 9 0 17 -3 19 -12 6z"/>
<path d="M2180 2616 c0 -2 7 -6 15 -10 8 -3 15 -1 15 4 0 6 -7 10 -15 10 -8 0
-15 -2 -15 -4z"/>
<path d="M2320 2565 c0 -8 5 -15 10 -15 6 0 10 7 10 15 0 8 -4 15 -10 15 -5 0
-10 -7 -10 -15z"/>
<path d="M2192 2475 c0 -16 2 -22 5 -12 2 9 2 23 0 30 -3 6 -5 -1 -5 -18z"/>
<path d="M2327 2408 c8 -59 13 -61 13 -5 0 26 -4 47 -9 47 -5 0 -7 -19 -4 -42z"/>
<path d="M2190 2431 c0 -5 7 -11 15 -15 8 -3 15 -1 15 3 0 5 -7 11 -15 15 -8
3 -15 1 -15 -3z"/>
<path d="M2381 2394 c0 -11 3 -14 6 -6 3 7 2 16 -1 19 -3 4 -6 -2 -5 -13z"/>
<path d="M2341 2184 c0 -11 3 -14 6 -6 3 7 2 16 -1 19 -3 4 -6 -2 -5 -13z"/>
<path d="M2351 2130 c-1 -20 -6 -41 -13 -48 -9 -9 -8 -12 5 -12 24 0 30 21 19
61 l-10 34 -1 -35z"/>
<path d="M2210 2100 c0 -29 4 -40 13 -38 18 7 20 53 3 68 -14 11 -16 7 -16
-30z"/>
<path d="M2060 1970 c0 -5 5 -10 10 -10 6 0 10 5 10 10 0 6 -4 10 -10 10 -5 0
-10 -4 -10 -10z"/>
<path d="M2008 1943 c5 -21 7 -23 10 -9 2 10 0 22 -6 28 -6 6 -7 0 -4 -19z"/>
<path d="M2110 1934 c0 -8 5 -12 10 -9 6 3 10 10 10 16 0 5 -4 9 -10 9 -5 0
-10 -7 -10 -16z"/>
<path d="M2037 1927 c-3 -8 -1 -20 4 -28 6 -10 9 -7 9 14 0 29 -5 35 -13 14z"/>
<path d="M2160 1910 c0 -5 5 -10 10 -10 6 0 10 5 10 10 0 6 -4 10 -10 10 -5 0
-10 -4 -10 -10z"/>
<path d="M2083 1894 c-3 -8 -1 -20 6 -27 8 -8 11 -4 11 16 0 30 -7 35 -17 11z"/>
<path d="M2124 1880 c2 -14 5 -33 5 -43 1 -23 21 -12 21 11 0 9 -7 26 -16 37
-14 19 -14 19 -10 -5z"/>
<path d="M2210 1874 c0 -8 5 -12 10 -9 6 3 10 10 10 16 0 5 -4 9 -10 9 -5 0
-10 -7 -10 -16z"/>
<path d="M2180 1826 c0 -14 5 -26 10 -26 6 0 10 9 10 19 0 11 -4 23 -10 26 -6
4 -10 -5 -10 -19z"/>
<path d="M2775 1830 c-8 -13 4 -32 16 -25 12 8 12 35 0 35 -6 0 -13 -4 -16
-10z"/>
<path d="M2022 1810 c0 -14 2 -19 5 -12 2 6 2 18 0 25 -3 6 -5 1 -5 -13z"/>
<path d="M2622 1809 c2 -6 8 -10 13 -10 5 0 11 4 13 10 2 6 -4 11 -13 11 -9 0
-15 -5 -13 -11z"/>
<path d="M2470 1795 c0 -8 7 -15 15 -15 8 0 15 7 15 15 0 8 -7 15 -15 15 -8 0
-15 -7 -15 -15z"/>
<path d="M2325 1789 c-10 -15 1 -23 20 -15 9 3 13 10 10 16 -8 13 -22 13 -30
-1z"/>
<path d="M2850 1755 c0 -9 5 -15 11 -13 6 2 11 8 11 13 0 5 -5 11 -11 13 -6 2
-11 -4 -11 -13z"/>
<path d="M2254 1714 c3 -9 6 -20 6 -25 0 -6 5 -7 10 -4 16 10 12 45 -6 45 -11
0 -14 -5 -10 -16z"/>
<path d="M2020 1670 c0 -11 4 -20 9 -20 5 0 7 9 4 20 -3 11 -7 20 -9 20 -2 0
-4 -9 -4 -20z"/>
<path d="M2770 1675 c0 -8 7 -15 15 -15 8 0 15 7 15 15 0 8 -7 15 -15 15 -8 0
-15 -7 -15 -15z"/>
<path d="M2625 1670 c-8 -13 4 -32 16 -25 12 8 12 35 0 35 -6 0 -13 -4 -16
-10z"/>
<path d="M2472 1648 c6 -18 28 -21 28 -4 0 9 -7 16 -16 16 -9 0 -14 -5 -12
-12z"/>
<path d="M2325 1641 c-7 -12 12 -24 25 -16 11 7 4 25 -10 25 -5 0 -11 -4 -15
-9z"/>
<path d="M2850 1615 c0 -8 5 -15 10 -15 6 0 10 7 10 15 0 8 -4 15 -10 15 -5 0
-10 -7 -10 -15z"/>
<path d="M2705 1600 c-3 -5 -1 -10 4 -10 6 0 11 5 11 10 0 6 -2 10 -4 10 -3 0
-8 -4 -11 -10z"/>
<path d="M2008 2713 c7 -3 16 -2 19 1 4 3 -2 6 -13 5 -11 0 -14 -3 -6 -6z"/>
<path d="M1551 2224 c0 -11 3 -14 6 -6 3 7 2 16 -1 19 -3 4 -6 -2 -5 -13z"/>
<path d="M2480 2354 c0 -8 5 -12 10 -9 6 4 8 11 5 16 -9 14 -15 11 -15 -7z"/>
<path d="M1230 2310 c0 -5 5 -10 10 -10 6 0 10 5 10 10 0 6 -4 10 -10 10 -5 0
-10 -4 -10 -10z"/>
<path d="M2006 2117 c3 -10 9 -15 12 -12 3 3 0 11 -7 18 -10 9 -11 8 -5 -6z"/>
<path d="M4540 1551 c0 -6 4 -13 10 -16 6 -3 7 1 4 9 -7 18 -14 21 -14 7z"/>
<path d="M4511 1534 c0 -11 3 -14 6 -6 3 7 2 16 -1 19 -3 4 -6 -2 -5 -13z"/>
<path d="M4080 1495 c0 -18 19 -40 26 -32 4 4 0 15 -9 24 -9 10 -17 13 -17 8z"/>
<path d="M2920 1246 c0 -8 4 -17 9 -20 11 -7 33 18 24 27 -12 12 -33 7 -33 -7z"/>
<path d="M2774 1239 c-10 -17 13 -36 27 -22 12 12 4 33 -11 33 -5 0 -12 -5
-16 -11z"/>
<path d="M2625 1221 c-3 -5 -1 -12 5 -16 12 -7 30 2 30 16 0 12 -27 12 -35 0z"/>
<path d="M2477 1214 c-9 -10 2 -24 19 -24 8 0 14 7 14 15 0 15 -21 21 -33 9z"/>
<path d="M2335 1200 c-8 -13 4 -32 16 -25 12 8 12 35 0 35 -6 0 -13 -4 -16
-10z"/>
<path d="M2855 1171 c-6 -11 9 -23 19 -14 9 9 7 23 -3 23 -6 0 -12 -4 -16 -9z"/>
<path d="M2707 1164 c-8 -8 1 -24 14 -24 5 0 9 7 9 15 0 15 -12 20 -23 9z"/>
<path d="M2560 1140 c0 -5 5 -10 10 -10 6 0 10 5 10 10 0 6 -4 10 -10 10 -5 0
-10 -4 -10 -10z"/>
<path d="M2410 1130 c0 -5 5 -10 10 -10 6 0 10 5 10 10 0 6 -4 10 -10 10 -5 0
-10 -4 -10 -10z"/>
<path d="M2927 1104 c-9 -10 2 -24 19 -24 8 0 14 7 14 15 0 15 -21 21 -33 9z"/>
<path d="M2780 1079 c0 -24 23 -21 28 4 2 10 -3 17 -12 17 -10 0 -16 -9 -16
-21z"/>
<path d="M2636 1083 c-12 -12 -6 -33 9 -33 8 0 15 6 15 14 0 17 -14 28 -24 19z"/>
<path d="M2480 1055 c0 -8 7 -15 15 -15 8 0 15 7 15 15 0 8 -7 15 -15 15 -8 0
-15 -7 -15 -15z"/>
<path d="M2334 1049 c-10 -17 13 -36 27 -22 12 12 4 33 -11 33 -5 0 -12 -5
-16 -11z"/>
<path d="M2860 1020 c0 -5 5 -10 10 -10 6 0 10 5 10 10 0 6 -4 10 -10 10 -5 0
-10 -4 -10 -10z"/>
<path d="M2716 1011 c-4 -7 -5 -15 -2 -18 9 -9 19 4 14 18 -4 11 -6 11 -12 0z"/>
<path d="M2562 989 c2 -6 8 -10 13 -10 5 0 11 4 13 10 2 6 -4 11 -13 11 -9 0
-15 -5 -13 -11z"/>
<path d="M2415 981 c-3 -5 -1 -12 5 -16 5 -3 10 1 10 9 0 18 -6 21 -15 7z"/>
<path d="M2787 943 c-4 -3 -7 -12 -7 -20 0 -17 26 -17 33 1 8 21 -11 35 -26
19z"/>
<path d="M2337 904 c-13 -13 -7 -24 14 -24 11 0 19 5 17 12 -5 14 -22 21 -31
12z"/>
<path d="M1940 3286 c0 -14 5 -28 10 -31 6 -3 10 5 10 19 0 14 -4 28 -10 31
-6 3 -10 -5 -10 -19z"/>
<path d="M12580 3289 c-7 -11 -14 -18 -17 -16 -2 3 -21 -6 -40 -19 -57 -38
-99 -46 -261 -51 -123 -3 -165 -8 -208 -24 -30 -11 -54 -24 -54 -29 0 -4 26 3
58 16 50 21 73 24 192 24 145 0 238 16 270 45 11 10 20 15 20 11 0 -4 13 2 28
13 16 11 29 27 29 35 0 21 -4 20 -17 -5z"/>
<path d="M2167 3156 c-4 -10 -5 -21 -2 -24 9 -9 17 6 13 25 -3 17 -4 17 -11
-1z"/>
<path d="M2858 2870 c-24 -27 -49 -50 -55 -50 -7 0 -13 -4 -13 -10 0 -5 10
-10 23 -10 12 0 31 -7 41 -15 11 -8 34 -15 51 -15 63 0 64 -5 67 -220 1 -107
0 -251 -4 -319 l-7 -124 122 8 c122 7 148 12 129 24 -6 3 72 6 171 7 151 0
187 3 215 17 17 10 32 20 32 23 0 2 -13 -2 -30 -11 -30 -16 -166 -22 -142 -6
11 7 11 9 -2 14 -10 4 -17 20 -18 44 l-1 38 -7 -45 c-6 -38 -7 -40 -10 -15 -1
17 -2 36 -1 43 1 6 -2 12 -8 12 -5 0 -8 11 -7 25 2 13 -1 22 -5 19 -16 -10 -9
13 9 29 25 23 49 2 27 -23 -12 -14 -12 -16 4 -16 11 0 17 7 16 21 -1 11 7 25
19 32 21 12 21 13 -3 10 -13 -1 -26 3 -28 9 -2 6 8 10 27 9 16 -1 27 1 24 4
-3 3 -15 6 -27 6 -11 0 -22 5 -24 11 -2 6 9 10 27 9 16 -1 28 1 24 4 -3 3 -19
6 -36 7 -24 1 -29 -2 -25 -16 5 -18 -9 -50 -21 -50 -5 0 -6 16 -4 35 3 22 0
35 -7 35 -7 0 -10 -3 -8 -7 3 -5 -6 -9 -19 -9 -20 -2 -23 1 -13 12 10 12 9 13
-5 8 -9 -3 -23 -1 -31 6 -20 16 -19 6 1 -14 8 -9 11 -16 5 -16 -5 0 -13 5 -16
10 -3 6 -15 10 -26 10 -13 0 -18 4 -13 13 6 10 4 10 -7 0 -7 -7 -22 -13 -34
-13 -15 0 -17 -2 -6 -9 9 -6 5 -8 -13 -8 -26 0 -26 0 -9 21 10 11 11 15 3 9
-19 -18 -50 -16 -50 2 0 7 -8 18 -17 24 -10 5 -15 13 -11 17 4 4 0 13 -10 21
-9 8 -11 11 -3 7 9 -5 12 -3 7 4 -4 7 -14 12 -23 12 -13 0 -13 3 -3 15 8 10 9
15 2 15 -6 0 -16 -8 -21 -17 -9 -14 -11 -10 -9 21 1 22 -2 41 -8 43 -5 2 -8
20 -6 41 4 34 4 36 -14 22 -16 -13 -17 -13 -12 2 9 21 -2 31 -19 17 -10 -9
-13 -4 -13 25 0 22 -4 35 -10 31 -11 -7 -13 5 -10 43 1 14 -4 22 -14 22 -19 0
-21 16 -3 23 25 9 42 -11 39 -45 -2 -24 0 -29 7 -19 7 11 10 5 13 -25 l3 -39
18 37 c22 44 15 87 -10 66 -14 -11 -16 -10 -9 15 5 20 2 29 -9 33 -10 4 -13
13 -10 25 5 13 1 19 -10 19 -9 0 -23 7 -31 15 -29 28 -60 18 -106 -35z m85 17
c-26 -11 -65 -1 -45 12 8 4 25 6 40 3 26 -5 26 -5 5 -15z m29 -39 c-6 -6 -20
-7 -32 -3 -16 5 -19 9 -10 15 17 11 54 0 42 -12z m-88 6 c25 -9 19 -24 -9 -24
-24 0 -32 10 -18 23 8 8 8 8 27 1z m44 -56 c-6 -18 -22 -20 -43 -3 -19 14 -18
14 13 15 22 0 32 -4 30 -12z m84 -208 c4 8 9 22 11 30 3 8 6 -3 6 -25 1 -27 4
-35 10 -26 6 9 10 3 13 -21 2 -22 -2 -40 -11 -48 -12 -11 -13 -9 -9 19 3 24 1
31 -9 27 -7 -3 -13 1 -13 10 0 10 -6 14 -15 10 -11 -4 -15 2 -15 23 0 16 3 38
7 48 6 14 9 8 14 -22 3 -23 8 -34 11 -25z m45 -127 c-3 -10 -5 -4 -5 12 0 17
2 24 5 18 2 -7 2 -21 0 -30z m-60 -15 c-3 -7 -5 -2 -5 12 0 14 2 19 5 13 2 -7
2 -19 0 -25z m25 -23 c-2 -19 -8 -37 -12 -40 -4 -2 -5 8 -3 23 10 59 21 73 15
17z m24 -40 c-1 -19 -6 -37 -12 -39 -7 -3 -9 6 -7 22 10 60 20 69 19 17z m164
-15 c0 -5 -4 -10 -10 -10 -5 0 -10 5 -10 10 0 6 5 10 10 10 6 0 10 -4 10 -10z
m30 5 c0 -7 -39 -45 -45 -45 -9 0 29 49 38 50 4 0 7 -2 7 -5z m38 -13 c2 -7
-2 -10 -12 -6 -9 3 -16 11 -16 16 0 13 23 5 28 -10z m62 9 c0 -5 -7 -11 -14
-14 -10 -4 -13 -1 -9 9 6 15 23 19 23 5z m30 0 c0 -5 -7 -11 -14 -14 -10 -4
-13 -1 -9 9 6 15 23 19 23 5z m28 -16 c0 -23 -4 -26 -25 -24 -4 0 -10 -9 -15
-20 -5 -14 -13 -19 -23 -15 -9 4 -14 12 -12 18 3 7 -4 13 -15 13 -16 2 -17 -1
-8 -13 8 -8 8 -14 2 -14 -5 0 -12 7 -16 15 -7 20 -33 19 -45 -2 -5 -10 -13
-14 -17 -10 -5 5 -2 12 6 17 9 6 10 10 3 10 -7 0 -16 -8 -22 -17 -5 -10 -12
-15 -16 -11 -4 3 4 17 16 29 15 15 24 18 27 11 2 -7 9 -9 15 -5 18 12 100 11
115 -1 10 -7 13 -6 12 5 -4 24 0 39 9 39 5 0 9 -11 9 -25z m-343 -45 c-4 -12
-9 -19 -12 -17 -3 3 -2 15 2 27 4 12 9 19 12 17 3 -3 2 -15 -2 -27z m120 0 c3
-5 1 -10 -4 -10 -6 0 -11 5 -11 10 0 6 2 10 4 10 3 0 8 -4 11 -10z m127 -37
c-6 -2 -9 -10 -6 -15 4 -7 2 -8 -4 -4 -18 11 -14 26 6 25 10 0 12 -3 4 -6z
m74 -4 c3 -5 1 -9 -4 -9 -6 0 -8 -10 -6 -22 5 -23 5 -23 -5 -1 -5 12 -17 26
-27 31 -14 8 -13 10 10 10 14 0 29 -4 32 -9z m-389 -36 c-3 -10 -5 -4 -5 12 0
17 2 24 5 18 2 -7 2 -21 0 -30z m253 17 c0 -5 -5 -10 -11 -10 -5 0 -7 5 -4 10
3 6 8 10 11 10 2 0 4 -4 4 -10z m30 0 c0 -5 -5 -10 -11 -10 -5 0 -7 5 -4 10 3
6 8 10 11 10 2 0 4 -4 4 -10z m130 -22 c0 -25 -3 -29 -10 -18 -13 20 -13 50 0
50 6 0 10 -15 10 -32z m-389 -14 c-9 -28 -9 -29 -10 -3 -1 14 2 29 6 32 11 12
13 2 4 -29z m16 -26 c-3 -8 -6 -5 -6 6 -1 11 2 17 5 13 3 -3 4 -12 1 -19z"/>
<path d="M3035 2875 c11 -9 19 -26 18 -38 -2 -17 0 -16 8 6 13 32 13 32 -21
41 -24 7 -24 7 -5 -9z"/>
<path d="M2340 2840 c0 -6 7 -10 15 -10 8 0 15 2 15 4 0 2 -7 6 -15 10 -8 3
-15 1 -15 -4z"/>
<path d="M2705 2795 c11 -8 36 -23 57 -33 21 -9 38 -23 38 -29 0 -13 47 -29
56 -20 3 3 -5 11 -19 19 -13 7 -49 26 -78 43 -64 36 -81 42 -54 20z"/>
<path d="M3750 2783 c0 -5 6 -15 13 -24 18 -24 217 -28 217 -5 0 8 -9 20 -19
26 -22 11 -211 14 -211 3z"/>
<path d="M2831 2747 c28 -21 59 -36 59 -29 0 5 -11 14 -25 20 -24 11 -44 16
-34 9z"/>
<path d="M3060 2694 c0 -8 5 -12 10 -9 6 4 8 11 5 16 -9 14 -15 11 -15 -7z"/>
<path d="M3100 2700 c-13 -8 -12 -10 3 -10 9 0 17 5 17 10 0 12 -1 12 -20 0z"/>
<path d="M3203 2704 c4 -4 42 -10 85 -12 42 -2 75 -2 72 1 -9 8 -165 19 -157
11z"/>
<path d="M3325 2670 c-4 -6 5 -10 19 -10 14 0 26 5 26 10 0 6 -9 10 -19 10
-11 0 -23 -4 -26 -10z"/>
<path d="M3390 2670 c0 -4 11 -10 25 -12 15 -3 25 -1 25 6 0 6 -11 12 -25 12
-14 1 -25 -2 -25 -6z"/>
<path d="M2892 2535 c0 -16 2 -22 5 -12 2 9 2 23 0 30 -3 6 -5 -1 -5 -18z"/>
<path d="M3593 2484 c0 -17 2 -22 7 -13 5 6 6 18 3 26 -8 19 -10 16 -10 -13z"/>
<path d="M3538 2489 c-10 -5 -18 -15 -18 -22 0 -7 4 -6 10 3 9 13 11 13 20 0
7 -12 9 -10 7 8 0 12 -1 22 -2 22 0 0 -8 -5 -17 -11z"/>
<path d="M3506 2268 c3 -5 10 -6 15 -3 13 9 11 12 -6 12 -8 0 -12 -4 -9 -9z"/>
<path d="M4498 2183 c6 -2 18 -2 25 0 6 3 1 5 -13 5 -14 0 -19 -2 -12 -5z"/>
<path d="M3243 2114 c3 -3 49 -27 102 -54 63 -32 95 -43 93 -33 -2 8 -42 32
-90 54 -80 35 -121 48 -105 33z"/>
<path d="M3035 2010 c7 -11 65 -43 65 -36 0 2 -16 13 -36 25 -19 12 -32 16
-29 11z"/>
<path d="M3800 1905 c0 -9 5 -15 11 -13 6 2 11 8 11 13 0 5 -5 11 -11 13 -6 2
-11 -4 -11 -13z"/>
<path d="M3657 1903 c-12 -11 -8 -23 8 -23 8 0 15 7 15 15 0 16 -12 20 -23 8z"/>
<path d="M3515 1890 c-4 -6 -3 -16 3 -22 6 -6 12 -6 17 2 4 6 3 16 -3 22 -6 6
-12 6 -17 -2z"/>
<path d="M3800 1754 c0 -9 5 -14 12 -12 18 6 21 28 4 28 -9 0 -16 -7 -16 -16z"/>
<path d="M3657 1754 c-8 -8 1 -24 14 -24 5 0 9 7 9 15 0 15 -12 20 -23 9z"/>
<path d="M3510 1735 c0 -9 5 -15 11 -13 6 2 11 8 11 13 0 5 -5 11 -11 13 -6 2
-11 -4 -11 -13z"/>
<path d="M3360 1725 c0 -8 7 -15 15 -15 8 0 15 7 15 15 0 8 -7 15 -15 15 -8 0
-15 -7 -15 -15z"/>
<path d="M4810 1720 c0 -5 5 -10 10 -10 6 0 10 5 10 10 0 6 -4 10 -10 10 -5 0
-10 -4 -10 -10z"/>
<path d="M3510 1584 c0 -9 5 -14 12 -12 18 6 21 28 4 28 -9 0 -16 -7 -16 -16z"/>
<path d="M3360 1575 c0 -8 7 -15 15 -15 8 0 15 7 15 15 0 8 -7 15 -15 15 -8 0
-15 -7 -15 -15z"/>
<path d="M3296 1501 c-4 -5 -2 -12 3 -15 5 -4 12 -2 15 3 4 5 2 12 -3 15 -5 4
-12 2 -15 -3z"/>
<path d="M3807 1324 c-8 -8 1 -24 14 -24 5 0 9 7 9 15 0 15 -12 20 -23 9z"/>
<path d="M3878 1300 c-4 -57 -45 -52 473 -56 398 -3 479 -1 488 10 17 20 -78
25 -538 29 -345 3 -384 5 -393 20 -12 23 -28 21 -30 -3z"/>
<path d="M3928 1303 c7 -3 16 -2 19 1 4 3 -2 6 -13 5 -11 0 -14 -3 -6 -6z"/>
<path d="M3740 1240 c0 -5 5 -10 10 -10 6 0 10 5 10 10 0 6 -4 10 -10 10 -5 0
-10 -4 -10 -10z"/>
<path d="M3804 1179 c-3 -6 -1 -16 5 -22 9 -9 14 -8 21 3 9 15 4 30 -10 30 -5
0 -12 -5 -16 -11z"/>
<path d="M3740 1094 c0 -8 5 -12 10 -9 6 3 10 10 10 16 0 5 -4 9 -10 9 -5 0
-10 -7 -10 -16z"/>
<path d="M3805 1029 c-4 -6 -4 -13 -1 -16 8 -8 36 5 36 17 0 13 -27 13 -35 -1z"/>
<path d="M3660 1009 c0 -24 23 -21 28 4 2 10 -3 17 -12 17 -10 0 -16 -9 -16
-21z"/>
<path d="M3517 1014 c-14 -14 -7 -35 11 -32 9 2 17 10 17 17 0 16 -18 25 -28
15z"/>
<path d="M3377 1003 c-4 -3 -7 -12 -7 -20 0 -15 26 -18 34 -4 7 11 -18 33 -27
24z"/>
</g>
</svg>
